<svg xmlns="http://www.w3.org/2000/svg" viewBox="0 0 410 404"><defs><linearGradient id="a" x1="163.44" x2="232.04" y1="49.9" y2="304.89" gradientUnits="userSpaceOnUse"><stop stop-color="#41d1ff"/><stop offset="1" stop-color="#bd34fe"/></linearGradient><linearGradient id="b" x1="146.63" x2="248.76" y1="192.1" y2="304.89" gradientUnits="userSpaceOnUse"><stop stop-color="#ffea83"/><stop offset=".08" stop-color="#ffdd35"/><stop offset="1" stop-color="#ffa800"/></linearGradient></defs><path fill="#111827" d="M399.91 59.69 215.15 388.85c-2.74 4.9-9.81 4.93-12.6.05L10.05 59.72c-3.06-5.39 1.25-11.98 7.46-10.87l186.74 32.7a7.25 7.25 0 0 0 2.52-.01l185.64-32.66c6.2-1.09 10.54 5.46 7.5 10.84Z"/><path fill="url(#a)" d="M292.04 61.95 150.04 129a5.62 5.62 0 0 0-3.05 4.99l4.73 91.12c.15 2.83 2.95 4.73 5.68 3.89l38.6-11.74c2.9-.88 5.78 1.38 5.69 4.39l-1.15 38.35c-.09 2.95 2.78 5.16 5.64 4.26l23.81-7.32a5.62 5.62 0 0 0 3.93-4.67l15.54-152.54c.32-3.17-2.76-5.54-5.76-4.3l-39.82 16.32c-3 1.23-6.15-1.3-5.7-4.52l7.38-52.89c.47-3.35-2.72-5.94-5.95-4.65Z"/><path fill="url(#b)" d="m205.26 262.34-36.58 11.17c-2.86.87-5.73-1.32-5.64-4.27l1.09-36.37-63.16 19.06c-3.21.97-6.35-1.67-5.99-5l15-142.37a5.62 5.62 0 0 1 3.05-4.4l142.8-66.33c3.46-1.6 7.24 1.28 6.77 5l-22.89 184.28a5.62 5.62 0 0 1-3.93 4.67l-30.53 9.23a5.62 5.62 0 0 1-3.69-.3Z"/></svg>
